<?xml version="1.0" standalone="no"?>
<!DOCTYPE svg PUBLIC "-//W3C//DTD SVG 20010904//EN"
 "http://www.w3.org/TR/2001/REC-SVG-20010904/DTD/svg10.dtd">
<svg version="1.0" xmlns="http://www.w3.org/2000/svg"
 width="225.000000pt" height="225.000000pt" viewBox="0 0 225.000000 225.000000"
 preserveAspectRatio="xMidYMid meet">

<g transform="translate(0.000000,225.000000) scale(0.100000,-0.100000)"
fill="#000000" stroke="none">
<path d="M0 1125 l0 -1125 1125 0 1125 0 0 1125 0 1125 -1125 0 -1125 0 0
-1125z m894 866 c45 -22 115 -69 156 -104 l75 -63 75 63 c136 115 286 172 374
143 52 -17 106 -67 129 -120 33 -75 34 -265 1 -396 -5 -19 2 -24 48 -39 101
-33 221 -99 273 -150 166 -161 74 -347 -228 -462 -86 -32 -98 -39 -93 -57 33
-131 32 -321 -1 -396 -23 -53 -77 -103 -128 -120 -89 -29 -236 27 -375 143
l-75 63 -75 -63 c-139 -116 -286 -172 -375 -143 -51 17 -105 67 -128 120 -33
75 -34 265 -1 396 5 18 -7 25 -93 57 -302 115 -394 301 -228 462 52 51 172
117 273 150 46 15 53 20 48 39 -31 125 -32 319 -2 391 58 137 186 168 350 86z"/>
<path d="M703 1953 c-57 -11 -103 -103 -103 -209 0 -43 26 -223 33 -231 1 -1
23 3 47 8 25 6 84 16 131 22 l86 12 82 103 83 103 -23 26 c-94 100 -258 181
-336 166z"/>
<path d="M1474 1951 c-71 -18 -201 -99 -263 -164 l-23 -26 83 -103 82 -103 86
-12 c47 -6 106 -16 131 -22 24 -5 46 -9 47 -7 1 1 10 45 19 96 41 238 -24 374
-162 341z"/>
<path d="M1080 1649 c-83 -99 -88 -89 44 -89 l117 0 -20 28 c-11 15 -37 47
-58 71 l-38 43 -45 -53z"/>
<path d="M958 1473 c-19 -5 -109 -145 -161 -249 l-32 -65 43 -83 c65 -127 130
-223 155 -230 29 -8 295 -8 324 0 25 7 90 103 155 230 l43 83 -32 65 c-59 118
-141 243 -165 250 -26 7 -304 6 -330 -1z m264 -168 c104 -69 102 -222 -3 -292
-147 -97 -329 69 -249 227 48 94 163 124 252 65z"/>
<path d="M730 1448 c-30 -5 -59 -14 -64 -18 -9 -9 41 -160 53 -160 5 0 97 153
109 182 4 10 -27 8 -98 -4z"/>
<path d="M1422 1452 c12 -29 104 -182 109 -182 12 0 62 151 53 160 -5 4 -39
13 -75 19 -78 13 -92 14 -87 3z"/>
<path d="M488 1381 c-98 -35 -181 -86 -224 -135 -90 -105 -4 -224 222 -305 47
-17 86 -31 88 -31 2 0 8 19 15 43 7 23 28 79 47 124 l34 82 -40 99 c-21 54
-42 111 -45 125 -4 15 -10 27 -14 26 -3 0 -40 -13 -83 -28z"/>
<path d="M1666 1384 c-4 -15 -25 -72 -46 -126 l-40 -99 34 -82 c19 -45 40
-101 47 -124 7 -24 13 -43 15 -43 22 0 188 71 232 100 80 51 112 94 112 152 0
36 -6 52 -34 84 -41 47 -124 98 -209 129 -108 39 -104 39 -111 9z"/>
<path d="M685 974 c-16 -43 -24 -79 -19 -84 10 -9 154 -33 160 -27 5 5 -99
187 -107 187 -4 0 -19 -34 -34 -76z"/>
<path d="M1472 958 c-29 -50 -51 -93 -48 -95 6 -6 150 18 160 27 9 9 -41 160
-53 160 -3 0 -30 -41 -59 -92z"/>
<path d="M621 752 c-34 -166 -21 -299 35 -355 39 -39 117 -38 198 3 63 32 145
92 185 134 l23 25 -83 103 -82 103 -108 16 c-59 9 -119 19 -132 23 -23 5 -25
2 -36 -52z"/>
<path d="M1595 804 c-5 -2 -62 -12 -126 -21 l-116 -18 -82 -103 -83 -103 23
-25 c40 -42 122 -102 185 -134 78 -39 158 -42 197 -6 56 52 70 192 36 359 -12
56 -14 60 -34 51z"/>
<path d="M1029 733 c11 -16 37 -48 58 -72 l38 -43 45 53 c83 99 88 89 -44 89
l-117 0 20 -27z"/>
</g>
</svg>
